# Blender v2.82 (sub 7) OBJ File: 'ile.blend'
# www.blender.org
mtllib ile.mtl
o Cube
v -3.109051 -0.985758 -2.134041
v -3.109051 0.817937 -2.134041
v -2.410194 -0.817660 5.096748
v -2.410194 0.817937 5.096748
v 3.825536 -0.906902 -3.321849
v 3.825536 0.817936 -3.321849
v 2.141403 -0.817660 2.475848
v 2.141403 0.817937 2.475848
v 2.561489 0.979121 0.045574
v -0.215033 0.979121 -4.482552
v -3.636654 -0.003707 -2.552682
v 2.561489 -0.003707 2.826128
v -2.776522 -0.003707 5.652113
v 4.245622 -0.003708 -3.740490
v -0.035839 -0.966026 3.692040
v -3.457460 -0.966025 0.273446
v -0.035839 0.979121 3.692041
v 2.561489 -0.966026 0.045574
v -0.215033 -0.966026 -2.552682
v -3.457460 0.979122 0.273446
v -0.179194 -1.272043 0.227872
v -0.000000 -0.003707 6.606735
v 3.519406 -0.003708 0.000000
v -0.179194 1.286763 0.227872
v -4.594571 -0.003707 0.273446
v -0.215033 -0.003707 -5.437175
v 4.114949 0.928982 -1.274241
v 2.430815 0.928982 1.437866
v -1.915515 0.928983 -4.352328
v 2.941607 0.928983 -3.610266
v -3.487563 -0.495295 -2.422458
v -3.487563 0.489092 -2.422458
v 2.430815 0.489092 2.708564
v 2.430815 -0.495296 2.708564
v -2.655804 -0.495295 5.498469
v -2.655803 0.489092 5.498469
v 4.114949 -0.938906 -3.610266
v 4.114949 0.489092 -3.610266
v -1.408545 -0.921406 5.469985
v 1.279873 -0.921407 3.121581
v -3.465164 -0.921406 -1.245757
v -2.980593 -0.921406 2.082552
v 1.279874 0.928983 3.121581
v -1.408545 0.928983 5.469985
v 2.430815 -0.921407 1.437866
v 4.114948 -0.921407 -1.274241
v 2.941607 -1.087635 -2.422458
v -1.915515 -0.990590 -2.422458
v -2.980593 0.928983 2.082552
v -3.465164 0.928983 -1.245757
v -0.210553 -1.203375 -1.367937
v 1.378839 -1.203375 0.136723
v -0.107517 -1.203375 2.080036
v -1.938821 -1.203374 0.267749
v -1.428118 -0.003707 6.573541
v -0.004480 -0.538791 6.339972
v 1.401239 -0.003707 4.089364
v -0.004480 0.533940 6.339972
v 3.280303 -0.003707 1.430602
v 3.280303 -0.538791 0.005697
v 4.964437 -0.003708 -1.396421
v 3.280303 0.533940 0.005697
v -0.210553 1.254927 -1.367937
v -1.938821 1.212768 0.267749
v -0.107516 1.254926 2.080036
v 1.378839 1.254926 0.136723
v -4.516743 -0.003707 -1.362241
v -4.333070 -0.538790 0.273446
v -3.925403 -0.003707 2.216759
v -4.333070 0.533940 0.273446
v 3.058493 -0.003707 -4.456834
v -0.215033 -0.538791 -5.198895
v -2.046338 -0.003707 -5.198895
v -0.215033 0.533940 -5.198895
v -1.977131 -1.139798 -1.310850
v 3.006770 -1.139798 -1.327228
v 1.335517 -1.139798 1.758365
v -1.674555 -1.139798 2.143135
v -1.387844 0.513880 6.333299
v -1.387844 -0.519389 6.333299
v 1.348396 -0.519389 3.868112
v 1.348396 0.513879 3.868111
v 3.071547 0.513879 1.393770
v 3.071547 -0.519389 1.393770
v 4.755680 -0.519390 -1.343606
v 4.755680 0.513879 -1.343607
v 3.006770 1.174828 -1.327228
v -1.977131 1.174828 -1.310850
v -1.674554 1.174828 2.143135
v 1.335517 1.174828 1.758365
v -4.282663 0.513880 -1.310138
v -4.282663 -0.519389 -1.310138
v -3.706255 -0.519389 2.160225
v -3.706255 0.513880 2.160226
v 3.006210 0.513879 -4.248795
v 3.006210 -0.895471 -4.248796
v -1.990571 -0.519389 -4.990856
v -1.990571 0.513880 -4.990856
vt 0.675347 0.449653
vt 0.712674 0.474826
vt 0.702025 0.550769
vt 0.644456 0.546043
vt 0.760417 0.489583
vt 0.756703 0.557292
vt 0.755016 0.625000
vt 0.697760 0.625000
vt 0.637828 0.625000
vt 0.815755 0.496745
vt 0.814694 0.560872
vt 0.875000 0.500000
vt 0.875000 0.562500
vt 0.875000 0.625000
vt 0.814212 0.625000
vt 0.814694 0.689128
vt 0.756703 0.692708
vt 0.875000 0.687500
vt 0.875000 0.750000
vt 0.815755 0.753255
vt 0.760417 0.760417
vt 0.702025 0.699231
vt 0.644456 0.703957
vt 0.712674 0.775174
vt 0.675347 0.800347
vt 0.324653 0.800347
vt 0.421043 0.769456
vt 0.425769 0.827025
vt 0.349826 0.837674
vt 0.500000 0.762828
vt 0.500000 0.822760
vt 0.500000 0.880016
vt 0.432292 0.881703
vt 0.364583 0.885417
vt 0.578957 0.769456
vt 0.574231 0.827025
vt 0.650174 0.837674
vt 0.635417 0.885417
vt 0.567708 0.881703
vt 0.564128 0.939694
vt 0.500000 0.939212
vt 0.628255 0.940755
vt 0.625000 1.000000
vt 0.562500 1.000000
vt 0.500000 1.000000
vt 0.435872 0.939694
vt 0.371745 0.940755
vt 0.437500 1.000000
vt 0.375000 1.000000
vt 0.375000 0.000000
vt 0.437500 0.000000
vt 0.437500 0.062500
vt 0.375000 0.062500
vt 0.500000 0.000000
vt 0.500000 0.062500
vt 0.500000 0.125000
vt 0.437500 0.125000
vt 0.375000 0.125000
vt 0.562500 0.000000
vt 0.562500 0.062500
vt 0.625000 0.000000
vt 0.625000 0.062500
vt 0.625000 0.125000
vt 0.562500 0.125000
vt 0.562554 0.187425
vt 0.500000 0.187440
vt 0.625109 0.187392
vt 0.625868 0.249132
vt 0.562934 0.249397
vt 0.500000 0.249518
vt 0.437446 0.187425
vt 0.374892 0.187392
vt 0.437066 0.249397
vt 0.374132 0.249132
vt 0.125000 0.500000
vt 0.184245 0.496745
vt 0.185306 0.560872
vt 0.125000 0.562500
vt 0.239583 0.489583
vt 0.243297 0.557292
vt 0.244985 0.625000
vt 0.185788 0.625000
vt 0.125000 0.625000
vt 0.287326 0.474826
vt 0.297975 0.550769
vt 0.324653 0.449653
vt 0.355544 0.546043
vt 0.362172 0.625000
vt 0.302240 0.625000
vt 0.297975 0.699231
vt 0.243297 0.692708
vt 0.355544 0.703957
vt 0.287326 0.775174
vt 0.239583 0.760417
vt 0.185306 0.689128
vt 0.125000 0.687500
vt 0.184245 0.753255
vt 0.125000 0.750000
vt 0.421043 0.480544
vt 0.425664 0.550664
vt 0.500000 0.487172
vt 0.500000 0.553952
vt 0.500000 0.625000
vt 0.428952 0.625000
vt 0.578957 0.480544
vt 0.574336 0.550664
vt 0.571048 0.625000
vt 0.574336 0.699336
vt 0.500000 0.696048
vt 0.425664 0.699336
vt 0.435818 0.310230
vt 0.371636 0.309136
vt 0.500000 0.310728
vt 0.500000 0.369985
vt 0.432292 0.368297
vt 0.364583 0.364583
vt 0.564182 0.310230
vt 0.628364 0.309136
vt 0.635417 0.364583
vt 0.567708 0.368297
vt 0.574231 0.422975
vt 0.500000 0.427240
vt 0.650174 0.412326
vt 0.425769 0.422975
vt 0.349826 0.412326
vn -0.0908 -0.9940 -0.0611
vn -0.0201 -0.9858 -0.1665
vn -0.0386 -0.9984 -0.0407
vn -0.1505 -0.9881 -0.0323
vn -0.0057 -0.9920 -0.1258
vn 0.1795 -0.9829 -0.0411
vn 0.1947 -0.9632 0.1851
vn 0.0274 -0.9992 -0.0289
vn 0.0492 -0.9981 0.0376
vn 0.2041 -0.9778 0.0469
vn 0.2380 -0.9576 0.1627
vn 0.0873 -0.9848 0.1504
vn -0.1601 -0.9852 0.0611
vn -0.0385 -0.9985 0.0389
vn 0.0200 -0.9957 0.0905
vn -0.1508 -0.9861 0.0700
vn -0.2885 0.8469 0.4467
vn -0.5178 0.3811 0.7660
vn -0.0159 0.4335 0.9010
vn 0.1260 0.9640 0.2343
vn -0.5175 -0.3821 0.7656
vn -0.2815 -0.8534 0.4386
vn 0.1230 -0.9662 0.2264
vn -0.0158 -0.4349 0.9003
vn 0.8452 -0.2623 0.4656
vn 0.2740 -0.9361 0.2206
vn 0.4441 -0.7902 0.4222
vn 0.6917 -0.3403 0.6369
vn 0.2841 0.9314 0.2277
vn 0.8455 0.2613 0.4657
vn 0.6920 0.3393 0.6371
vn 0.4527 0.7819 0.4286
vn 0.5676 0.7780 0.2693
vn 0.8374 0.3460 0.4232
vn 0.9089 0.3901 0.1472
vn 0.5365 0.8394 0.0867
vn 0.8371 -0.3469 0.4230
vn 0.5588 -0.7862 0.2637
vn 0.5227 -0.8485 0.0833
vn 0.9084 -0.3915 0.1470
vn 0.6651 -0.2442 0.7057
vn 0.4745 -0.7092 0.5214
vn 0.3719 -0.9282 0.0070
vn 0.9345 -0.2505 -0.2528
vn 0.4834 0.6966 0.5302
vn 0.6653 0.2432 0.7058
vn 0.8980 0.3500 -0.2667
vn 0.5815 0.7995 -0.1505
vn 0.1915 0.9768 -0.0962
vn 0.0342 0.9947 -0.0966
vn 0.0232 0.9994 -0.0245
vn 0.2205 0.9531 0.2074
vn -0.0420 0.9955 -0.0847
vn -0.2240 0.9682 -0.1117
vn -0.1580 0.9871 -0.0257
vn -0.0442 0.9988 -0.0210
vn -0.0456 0.9987 0.0228
vn -0.1682 0.9841 0.0574
vn -0.1666 0.9830 0.0773
vn 0.0208 0.9944 0.1036
vn 0.2324 0.9710 0.0554
vn 0.0416 0.9986 0.0318
vn 0.1016 0.9800 0.1713
vn 0.2612 0.9486 0.1785
vn -0.4354 0.8459 -0.3080
vn -0.7456 0.3814 -0.5465
vn -0.9037 0.4263 -0.0387
vn -0.4520 0.8916 -0.0264
vn -0.7453 -0.3824 -0.5462
vn -0.5188 -0.8069 -0.2823
vn -0.4390 -0.8982 -0.0246
vn -0.9030 -0.4278 -0.0385
vn -0.8631 -0.4106 0.2941
vn -0.4490 -0.8810 0.1493
vn -0.5405 -0.8270 0.1546
vn -0.8871 -0.3597 0.2893
vn -0.4618 0.8734 0.1545
vn -0.8637 0.4092 0.2944
vn -0.8874 0.3587 0.2895
vn -0.5501 0.8200 0.1579
vn 0.2987 0.7967 -0.5254
vn 0.4779 0.3555 -0.8033
vn 0.2638 0.3868 -0.8836
vn 0.1589 0.8369 -0.5238
vn 0.4945 -0.2059 -0.8445
vn 0.0601 -0.9961 -0.0654
vn -0.0509 -0.9892 -0.1377
vn 0.2570 -0.2971 -0.9196
vn -0.1150 -0.3935 -0.9121
vn -0.0150 -0.9854 -0.1696
vn -0.2899 -0.9200 -0.2637
vn -0.8139 -0.3268 -0.4804
vn -0.0688 0.8439 -0.5320
vn -0.1151 0.3921 -0.9127
vn -0.8142 0.3259 -0.4805
vn -0.5895 0.7459 -0.3102
usemtl Material
s off
f 1/1/1 48/2/1 75/3/1 41/4/1
f 48/2/2 19/5/2 51/6/2 75/3/2
f 75/3/3 51/6/3 21/7/3 54/8/3
f 41/4/4 75/3/4 54/8/4 16/9/4
f 19/5/5 47/10/5 76/11/5 51/6/5
f 47/10/6 5/12/6 46/13/6 76/11/6
f 76/11/7 46/13/7 18/14/7 52/15/7
f 51/6/8 76/11/8 52/15/8 21/7/8
f 21/7/9 52/15/9 77/16/9 53/17/9
f 52/15/10 18/14/10 45/18/10 77/16/10
f 77/16/11 45/18/11 7/19/11 40/20/11
f 53/17/12 77/16/12 40/20/12 15/21/12
f 16/9/13 54/8/13 78/22/13 42/23/13
f 54/8/14 21/7/14 53/17/14 78/22/14
f 78/22/15 53/17/15 15/21/15 39/24/15
f 42/23/16 78/22/16 39/24/16 3/25/16
f 4/26/17 36/27/17 79/28/17 44/29/17
f 36/27/18 13/30/18 55/31/18 79/28/18
f 79/28/19 55/31/19 22/32/19 58/33/19
f 44/29/20 79/28/20 58/33/20 17/34/20
f 13/30/21 35/35/21 80/36/21 55/31/21
f 35/35/22 3/25/22 39/37/22 80/36/22
f 80/36/23 39/37/23 15/38/23 56/39/23
f 55/31/24 80/36/24 56/39/24 22/32/24
f 22/32/25 56/39/25 81/40/25 57/41/25
f 56/39/26 15/38/26 40/42/26 81/40/26
f 81/40/27 40/42/27 7/43/27 34/44/27
f 57/41/28 81/40/28 34/44/28 12/45/28
f 17/34/29 58/33/29 82/46/29 43/47/29
f 58/33/30 22/32/30 57/41/30 82/46/30
f 82/46/31 57/41/31 12/45/31 33/48/31
f 43/47/32 82/46/32 33/48/32 8/49/32
f 8/50/33 33/51/33 83/52/33 28/53/33
f 33/51/34 12/54/34 59/55/34 83/52/34
f 83/52/35 59/55/35 23/56/35 62/57/35
f 28/53/36 83/52/36 62/57/36 9/58/36
f 12/54/37 34/59/37 84/60/37 59/55/37
f 34/59/38 7/61/38 45/62/38 84/60/38
f 84/60/39 45/62/39 18/63/39 60/64/39
f 59/55/40 84/60/40 60/64/40 23/56/40
f 23/56/41 60/64/41 85/65/41 61/66/41
f 60/64/42 18/63/42 46/67/42 85/65/42
f 85/65/43 46/67/43 5/68/43 37/69/43
f 61/66/44 85/65/44 37/69/44 14/70/44
f 9/58/45 62/57/45 86/71/45 27/72/45
f 62/57/46 23/56/46 61/66/46 86/71/46
f 86/71/47 61/66/47 14/70/47 38/73/47
f 27/72/48 86/71/48 38/73/48 6/74/48
f 6/75/49 30/76/49 87/77/49 27/78/49
f 30/76/50 10/79/50 63/80/50 87/77/50
f 87/77/51 63/80/51 24/81/51 66/82/51
f 27/78/52 87/77/52 66/82/52 9/83/52
f 10/79/53 29/84/53 88/85/53 63/80/53
f 29/84/54 2/86/54 50/87/54 88/85/54
f 88/85/55 50/87/55 20/88/55 64/89/55
f 63/80/56 88/85/56 64/89/56 24/81/56
f 24/81/57 64/89/57 89/90/57 65/91/57
f 64/89/58 20/88/58 49/92/58 89/90/58
f 89/90/59 49/92/59 4/26/59 44/93/59
f 65/91/60 89/90/60 44/93/60 17/94/60
f 9/83/61 66/82/61 90/95/61 28/96/61
f 66/82/62 24/81/62 65/91/62 90/95/62
f 90/95/63 65/91/63 17/94/63 43/97/63
f 28/96/64 90/95/64 43/97/64 8/98/64
f 2/86/65 32/99/65 91/100/65 50/87/65
f 32/99/66 11/101/66 67/102/66 91/100/66
f 91/100/67 67/102/67 25/103/67 70/104/67
f 50/87/68 91/100/68 70/104/68 20/88/68
f 11/101/69 31/105/69 92/106/69 67/102/69
f 31/105/70 1/1/70 41/4/70 92/106/70
f 92/106/71 41/4/71 16/9/71 68/107/71
f 67/102/72 92/106/72 68/107/72 25/103/72
f 25/103/73 68/107/73 93/108/73 69/109/73
f 68/107/74 16/9/74 42/23/74 93/108/74
f 93/108/75 42/23/75 3/25/75 35/35/75
f 69/109/76 93/108/76 35/35/76 13/30/76
f 20/88/77 70/104/77 94/110/77 49/92/77
f 70/104/78 25/103/78 69/109/78 94/110/78
f 94/110/79 69/109/79 13/30/79 36/27/79
f 49/92/80 94/110/80 36/27/80 4/26/80
f 6/74/81 38/73/81 95/111/81 30/112/81
f 38/73/82 14/70/82 71/113/82 95/111/82
f 95/111/83 71/113/83 26/114/83 74/115/83
f 30/112/84 95/111/84 74/115/84 10/116/84
f 14/70/85 37/69/85 96/117/85 71/113/85
f 37/69/86 5/68/86 47/118/86 96/117/86
f 96/117/87 47/118/87 19/119/87 72/120/87
f 71/113/88 96/117/88 72/120/88 26/114/88
f 26/114/89 72/120/89 97/121/89 73/122/89
f 72/120/90 19/119/90 48/123/90 97/121/90
f 97/121/91 48/123/91 1/1/91 31/105/91
f 73/122/92 97/121/92 31/105/92 11/101/92
f 10/116/93 74/115/93 98/124/93 29/125/93
f 74/115/94 26/114/94 73/122/94 98/124/94
f 98/124/95 73/122/95 11/101/95 32/99/95
f 29/125/96 98/124/96 32/99/96 2/86/96
