# Blender v2.83.1 OBJ File: 'pyramid2.blend'
# www.blender.org
mtllib pyramid2.mtl
o Cone
v 0.000000 -1.000000 -1.000000
v 0.866025 -1.000000 -0.500000
v 0.866025 -1.000000 0.500000
v -0.000000 -1.000000 1.000000
v 0.000000 1.000000 0.000000
v -0.866025 -1.000000 0.500000
v -0.866025 -1.000000 -0.500000
vt 0.250000 0.490000
vt 0.250000 0.250000
vt 0.457846 0.370000
vt 0.457846 0.130000
vt 0.250000 0.010000
vt 0.042154 0.130000
vt 0.042154 0.370000
vt 0.750000 0.490000
vt 0.957846 0.370000
vt 0.957846 0.130000
vt 0.750000 0.010000
vt 0.542154 0.130000
vt 0.542154 0.370000
vn 0.4588 0.3974 -0.7947
vn 0.9177 0.3974 0.0000
vn 0.4588 0.3974 0.7947
vn -0.4588 0.3974 0.7947
vn -0.9177 0.3974 0.0000
vn -0.4588 0.3974 -0.7947
vn 0.0000 -1.0000 0.0000
usemtl None
s off
f 1/1/1 5/2/1 2/3/1
f 2/3/2 5/2/2 3/4/2
f 3/4/3 5/2/3 4/5/3
f 4/5/4 5/2/4 6/6/4
f 6/6/5 5/2/5 7/7/5
f 7/7/6 5/2/6 1/1/6
f 1/8/7 2/9/7 3/10/7 4/11/7 6/12/7 7/13/7
